<svg xmlns="http://www.w3.org/2000/svg" xmlns:xlink="http://www.w3.org/1999/xlink" width="3840" zoomAndPan="magnify" viewBox="0 0 2880 1619.99993" height="2160" preserveAspectRatio="xMidYMid meet" version="1.0"><defs><g/></defs><g fill="#ffffff" fill-opacity="1"><g transform="translate(339.087367, 1099.874887)"><g><path d="M 150.859375 0 L 19.03125 0 L 219.890625 -581.8125 L 378.40625 -581.8125 L 578.984375 0 L 447.15625 0 L 403.984375 -132.671875 L 194.03125 -132.671875 Z M 225.28125 -228.6875 L 373.015625 -228.6875 L 301.421875 -448.859375 L 296.875 -448.859375 Z M 225.28125 -228.6875 "/></g></g></g><g fill="#ffffff" fill-opacity="1"><g transform="translate(857.383786, 1099.874887)"><g><path d="M 537.21875 -581.8125 L 537.21875 0 L 430.96875 0 L 177.84375 -366.1875 L 173.578125 -366.1875 L 173.578125 0 L 50.5625 0 L 50.5625 -581.8125 L 158.515625 -581.8125 L 409.65625 -215.90625 L 414.765625 -215.90625 L 414.765625 -581.8125 Z M 537.21875 -581.8125 "/></g></g></g><g fill="#ffffff" fill-opacity="1"><g transform="translate(1365.452942, 1099.874887)"><g><path d="M 436.359375 -393.75 C 428.597656 -421.019531 414.253906 -442.375 393.328125 -457.8125 C 372.398438 -473.25 346.117188 -480.96875 314.484375 -480.96875 C 269.984375 -480.96875 233.953125 -464.535156 206.390625 -431.671875 C 178.835938 -398.816406 165.0625 -352.085938 165.0625 -291.484375 C 165.0625 -230.679688 178.601562 -183.707031 205.6875 -150.5625 C 232.769531 -117.425781 269.414062 -100.859375 315.625 -100.859375 C 356.53125 -100.859375 388.675781 -111.507812 412.0625 -132.8125 C 435.457031 -154.113281 447.535156 -182.757812 448.296875 -218.75 L 323.296875 -218.75 L 323.296875 -311.359375 L 566.765625 -311.359375 L 566.765625 -238.0625 C 566.765625 -187.113281 555.96875 -143.222656 534.375 -106.390625 C 512.78125 -69.554688 483.09375 -41.289062 445.3125 -21.59375 C 407.53125 -1.894531 364.113281 7.953125 315.0625 7.953125 C 260.507812 7.953125 212.585938 -4.117188 171.296875 -28.265625 C 130.015625 -52.410156 97.867188 -86.785156 74.859375 -131.390625 C 51.847656 -175.992188 40.34375 -228.976562 40.34375 -290.34375 C 40.34375 -353.21875 52.367188 -407.003906 76.421875 -451.703125 C 100.472656 -496.398438 133.046875 -530.582031 174.140625 -554.25 C 215.242188 -577.925781 261.363281 -589.765625 312.5 -589.765625 C 356.4375 -589.765625 396.207031 -581.429688 431.8125 -564.765625 C 467.425781 -548.097656 496.59375 -525.039062 519.3125 -495.59375 C 542.039062 -466.144531 556.054688 -432.195312 561.359375 -393.75 Z M 436.359375 -393.75 "/></g></g></g><g fill="#ffffff" fill-opacity="1"><g transform="translate(1893.976765, 1099.874887)"><g><path d="M 50.5625 0 L 50.5625 -581.8125 L 442.609375 -581.8125 L 442.609375 -480.390625 L 173.578125 -480.390625 L 173.578125 -341.765625 L 422.4375 -341.765625 L 422.4375 -240.34375 L 173.578125 -240.34375 L 173.578125 -101.421875 L 443.75 -101.421875 L 443.75 0 Z M 50.5625 0 "/></g></g></g><g fill="#ffffff" fill-opacity="1"><g transform="translate(2304.034468, 1099.874887)"><g><path d="M 50.5625 0 L 50.5625 -581.8125 L 173.578125 -581.8125 L 173.578125 -101.421875 L 423.015625 -101.421875 L 423.015625 0 Z M 50.5625 0 "/></g></g></g></svg>